<?xml version="1.0"?>
<svg xmlns="http://www.w3.org/2000/svg" id="Capa_1" enable-background="new 0 0 512 512" height="512px" viewBox="0 0 512 512" width="512px"><g><path d="m448.8 417.733h-19.594c-6.281-18.655-23.927-32.133-44.672-32.133s-38.39 13.478-44.671 32.133h-55.257c-6.281-18.655-23.926-32.133-44.671-32.133-20.15 0-37.379 12.714-44.108 30.537-14.977-4.276-26.582-16.791-29.262-32.856 0 0-2.954-17.728-5.324-31.948h33.824l-18.566-222.8h-52.39l-6.146-36.881c-5.753-34.488-35.305-59.519-70.267-59.519h-32.696c-8.284 0-15 6.716-15 15s6.716 15 15 15h32.695c20.238 0 37.345 14.49 40.675 34.452l48.602 291.629c5.062 30.344 28.549 53.358 57.932 58.453 5.956 19.208 23.89 33.199 45.03 33.199 20.745 0 38.39-13.478 44.671-32.133h55.257c6.281 18.655 23.926 32.133 44.671 32.133s38.391-13.478 44.672-32.133h19.595c8.284 0 15-6.716 15-15s-6.716-15-15-15z" data-original="#000000" class="active-path" data-old_color="#000000" fill="#FFFFFF"/><path d="m401.798 128.533h-82.598v222.8h64.031z" data-original="#000000" class="active-path" data-old_color="#000000" fill="#FFFFFF"/><path d="m289.2 351.333v-222.8h-82.598l18.566 222.8z" data-original="#000000" class="active-path" data-old_color="#000000" fill="#FFFFFF"/><path d="m508.445 133.837c-2.85-3.364-7.036-5.304-11.445-5.304h-65.098l-18.566 222.8h51.531c7.333 0 13.591-5.301 14.796-12.534l32.134-192.8c.724-4.349-.502-8.797-3.352-12.162z" data-original="#000000" class="active-path" data-old_color="#000000" fill="#FFFFFF"/></g> </svg>
