<svg height="437pt" viewBox="-12 0 437 437.79603" width="437pt" xmlns="http://www.w3.org/2000/svg"><path d="m193.15625 230.074219c2.117188 2.476562 5.824219 2.8125 8.351562.757812l30.1875-24.5625c2.570313-2.089843 2.960938-5.871093.867188-8.441406-2.089844-2.570313-5.867188-2.957031-8.441406-.867187l-25.644532 20.863281-9.15625-10.726563c-2.15625-2.519531-5.941406-2.816406-8.460937-.664062-2.519531 2.15625-2.816406 5.945312-.660156 8.460937zm0 0"/><path d="m206.332031 269.894531c30.914063-.035156 55.964844-25.085937 56-56 .058594-14.488281-5.558593-28.425781-15.648437-38.824219v-38.800781c0-21.984375-17.824219-39.808593-39.808594-39.808593-21.988281 0-39.8125 17.824218-39.8125 39.808593v37.75c-16.207031 15.9375-21.167969 40.089844-12.554688 61.125 8.617188 21.03125 29.097657 34.765625 51.824219 34.75zm-27.269531-133.625c0-15.359375 12.453125-27.808593 27.8125-27.808593s27.808594 12.449218 27.808594 27.808593v29.332031c-17.121094-10.058593-38.289063-10.285156-55.621094-.59375zm27.269531 33.625c24.300781 0 44 19.699219 44 44s-19.699219 44-44 44-44-19.699219-44-44c-.046875-11.683593 4.574219-22.902343 12.835938-31.164062s19.480469-12.882813 31.164062-12.835938zm0 0"/><path d="m399.976562 170.613281-65.347656-40.324219c-.199218-.125-.410156-.238281-.625-.335937l-1.605468-.746094v-27.671875c0-1.480468-.546876-2.90625-1.535157-4.007812l-85.535156-95.355469c-.050781-.054687-.109375-.101563-.164063-.152344-1.132812-1.285156-2.765624-2.019531-4.480468-2.019531-.257813 0-.511719.0195312-.769532.0546875l-.242187-.0234375c-.199219-.0234375-.398437-.03125-.597656-.03125h-120.960938c-20.820312.0234375-37.691406 16.894531-37.714843 37.714844v91.941406l-67.558594 40.945312c-7.707032 4.746094-12.410156 13.136719-12.441406 22.1875v194.558594c.027343 27.847656 22.59375 50.417969 50.445312 50.449219h311.109375c27.847656-.03125 50.417969-22.601563 50.445313-50.449219v-194.558594c-.027344-9.042968-4.726563-17.425781-12.421876-22.175781zm-6.277343 10.226563c4.148437 2.554687 6.683593 7.074218 6.699219 11.949218v11.195313l-68 41.554687v-102.527343zm-147.015625-159.1875 57.460937 64.0625h-31.746093c-14.195313-.019532-25.699219-11.523438-25.714844-25.71875zm-128.570313-9.65625h116.570313v48c.023437 20.820312 16.894531 37.695312 37.714844 37.71875h42.511718l5.488282 6.117187v149.039063l-114 69.667968-114-69.667968v-215.15625c.015624-14.199219 11.519531-25.703125 25.714843-25.71875zm-99.035156 168.855468 61.320313-37.164062v101.851562l-68-41.554687v-11.195313c.015624-4.867187 2.539062-9.378906 6.679687-11.9375zm342.875 244.945313h-311.109375c-21.226562-.023437-38.421875-17.226563-38.445312-38.449219v-169.300781l69.777343 42.644531c.660157.65625 1.46875 1.148438 2.355469 1.4375l118.738281 72.566406c1.921875 1.175782 4.335938 1.175782 6.257813 0l118.738281-72.5625c.886719-.289062 1.691406-.78125 2.355469-1.4375l69.777344-42.648437v169.300781c-.023438 21.222656-17.21875 38.425782-38.445313 38.449219zm0 0"/></svg>